<?xml version="1.0" encoding="utf-8"?>
<!-- Generator: Adobe Illustrator 21.0.0, SVG Export Plug-In . SVG Version: 6.00 Build 0)  -->
<svg version="1.1" id="Layer_1" xmlns="http://www.w3.org/2000/svg" xmlns:xlink="http://www.w3.org/1999/xlink" x="0px" y="0px"
	 viewBox="0 0 1309.2 453.6" style="enable-background:new 0 0 1309.2 453.6;" xml:space="preserve">
<style type="text/css">
	.st0{fill:#58595B;}
	.st1{fill:#4B5EAA;}
	.st2{fill:#263B73;}
	.st3{fill:#EE3D96;}
	.st4{fill:#FFFFFF;}
	.st5{fill:#D1D3D4;}
</style>
<g>
	<g>
		<path class="st0" d="M395.3,397.6h5.3V438h-5.3V397.6z"/>
		<path class="st0" d="M432.8,420c0-6.5-3.5-9.8-8.9-9.8c-5.4,0-9.1,3.4-9.1,10.2V438h-5.3v-31.7h5.3v4.5c2.1-3.3,5.9-5.1,10.2-5.1
			c7.4,0,13,4.5,13,13.6V438h-5.2V420z"/>
		<path class="st0" d="M447.8,410.6h-4.1v-4.3h4.1v-8h5.3v8h8.3v4.3H453v18.7c0,3.1,1.2,4.2,4.4,4.2h3.9v4.5h-4.7
			c-5.6,0-8.8-2.3-8.8-8.7V410.6z"/>
		<path class="st0" d="M481.4,438.5c-9,0-15.7-6.4-15.7-16.5c0-10,6.4-16.3,15.7-16.3c9.2,0,15.2,6.5,15.2,15.2
			c0,1.2-0.1,2.1-0.2,3.2h-25.4c0.4,6.4,4.9,10,10.3,10c4.8,0,7.8-2.4,8.9-5.9h5.7C494.4,434,489.3,438.5,481.4,438.5z M471.2,419.8
			h20c0.1-6.2-4.6-9.6-10-9.6C476,410.2,471.8,413.6,471.2,419.8z"/>
		<path class="st0" d="M503.6,395.1h5.3V438h-5.3V395.1z"/>
		<path class="st0" d="M517.9,395.1h5.3V438h-5.3V395.1z"/>
		<path class="st0" d="M531.3,397.5c0-2,1.6-3.6,3.6-3.6c1.9,0,3.5,1.6,3.5,3.6c0,2-1.6,3.6-3.5,3.6
			C532.8,401.1,531.3,399.5,531.3,397.5z M532.1,406.2h5.3V438h-5.3V406.2z"/>
		<path class="st0" d="M559.5,405.7c5.8,0,10,2.9,11.8,6.3v-5.8h5.3v32.4c0,8.7-5.9,14.9-15.2,14.9c-8.3,0-14.3-4.2-15.3-11h5.2
			c1.2,3.8,4.9,6.4,10.1,6.4c5.6,0,9.8-3.6,9.8-10.4V432c-1.9,3.4-6,6.5-11.8,6.5c-8.5,0-15.1-6.7-15.1-16.5
			C544.4,412.1,550.9,405.7,559.5,405.7z M560.5,410.3c-5.8,0-10.7,4.2-10.7,11.7c0,7.5,4.9,11.9,10.7,11.9
			c5.8,0,10.8-4.3,10.8-11.8C571.3,414.7,566.3,410.3,560.5,410.3z"/>
		<path class="st0" d="M599.3,438.5c-9,0-15.7-6.4-15.7-16.5c0-10,6.4-16.3,15.7-16.3c9.2,0,15.2,6.5,15.2,15.2
			c0,1.2-0.1,2.1-0.2,3.2H589c0.4,6.4,4.9,10,10.3,10c4.8,0,7.8-2.4,8.9-5.9h5.7C612.2,434,607.1,438.5,599.3,438.5z M589,419.8h20
			c0.1-6.2-4.6-9.6-10-9.6C593.9,410.2,589.6,413.6,589,419.8z"/>
		<path class="st0" d="M644.7,420c0-6.5-3.5-9.8-8.9-9.8c-5.4,0-9.1,3.4-9.1,10.2V438h-5.3v-31.7h5.3v4.5c2.1-3.3,5.9-5.1,10.2-5.1
			c7.4,0,13,4.5,13,13.6V438h-5.2V420z"/>
		<path class="st0" d="M672,405.7c7.9,0,13,4.1,14.7,10.7H681c-1.1-3.8-4.3-6.3-9-6.3c-5.8,0-10.1,4.1-10.1,11.9
			c0,7.9,4.3,12,10.1,12c4.7,0,7.8-2.3,9-6.3h5.7c-1.6,6.3-6.8,10.7-14.7,10.7c-9,0-15.5-6.4-15.5-16.5
			C656.6,412.1,663,405.7,672,405.7z"/>
		<path class="st0" d="M707.4,438.5c-9,0-15.7-6.4-15.7-16.5c0-10,6.4-16.3,15.7-16.3c9.2,0,15.2,6.5,15.2,15.2
			c0,1.2-0.1,2.1-0.2,3.2h-25.4c0.4,6.4,4.9,10,10.3,10c4.7,0,7.8-2.4,8.9-5.9h5.7C720.4,434,715.3,438.5,707.4,438.5z M697.2,419.8
			h20c0.1-6.2-4.6-9.6-10-9.6C702,410.2,697.8,413.6,697.2,419.8z"/>
		<path class="st0" d="M769,429h-17.6l-3.2,9h-5.6l14.6-40.1h6.1l14.5,40.1h-5.6L769,429z M760.1,404.3l-7.3,20.4h14.6L760.1,404.3z
			"/>
		<path class="st0" d="M812.3,438H807v-4.7c-2,3.3-5.9,5.2-10.1,5.2c-7.3,0-13-4.5-13-13.6v-18.6h5.2v17.9c0,6.4,3.5,9.7,8.9,9.7
			c5.4,0,9.1-3.4,9.1-10.2v-17.4h5.3V438z"/>
		<path class="st0" d="M822.4,410.6h-4.1v-4.3h4.1v-8h5.3v8h8.3v4.3h-8.3v18.7c0,3.1,1.2,4.2,4.4,4.2h3.9v4.5h-4.7
			c-5.6,0-8.8-2.3-8.8-8.7V410.6z"/>
		<path class="st0" d="M856.1,438.5c-9,0-15.8-6.4-15.8-16.5c0-10,7.1-16.3,16-16.3c9,0,16,6.3,16,16.3
			C872.4,432.1,865.2,438.5,856.1,438.5z M856.1,433.9c5.5,0,10.9-3.8,10.9-11.8c0-8-5.3-11.8-10.7-11.8c-5.6,0-10.6,3.8-10.6,11.8
			C845.7,430.1,850.6,433.9,856.1,433.9z"/>
		<path class="st0" d="M925.2,420c0-6.5-3.5-9.8-8.7-9.8c-5.3,0-9,3.4-9,10.3V438h-5.2v-18c0-6.5-3.5-9.8-8.7-9.8
			c-5.3,0-9,3.4-9,10.3V438h-5.3v-31.7h5.3v4.6c2.1-3.4,5.9-5.2,10-5.2c5.2,0,9.6,2.3,11.6,7.1c1.9-4.6,6.4-7.1,11.2-7.1
			c7.2,0,12.9,4.5,12.9,13.6V438h-5.2V420z"/>
		<path class="st0" d="M952.1,405.7c5.9,0,10,3,11.8,6.3v-5.8h5.3V438H964v-5.9c-1.9,3.4-6,6.4-11.9,6.4c-8.5,0-15-6.7-15-16.5
			C937.1,412.1,943.6,405.7,952.1,405.7z M953.2,410.3c-5.8,0-10.7,4.2-10.7,11.7c0,7.5,4.9,11.9,10.7,11.9
			c5.8,0,10.8-4.3,10.8-11.8C964,414.7,959,410.3,953.2,410.3z"/>
		<path class="st0" d="M979.4,410.6h-4.1v-4.3h4.1v-8h5.3v8h8.3v4.3h-8.3v18.7c0,3.1,1.2,4.2,4.4,4.2h3.9v4.5h-4.7
			c-5.6,0-8.8-2.3-8.8-8.7V410.6z"/>
		<path class="st0" d="M1013,438.5c-9,0-15.7-6.4-15.7-16.5c0-10,6.4-16.3,15.7-16.3c9.2,0,15.2,6.5,15.2,15.2
			c0,1.2-0.1,2.1-0.2,3.2h-25.4c0.4,6.4,4.9,10,10.3,10c4.7,0,7.8-2.4,8.9-5.9h5.7C1026,434,1020.9,438.5,1013,438.5z M1002.8,419.8
			h20c0.1-6.2-4.6-9.6-10-9.6C1007.6,410.2,1003.4,413.6,1002.8,419.8z"/>
		<path class="st0" d="M1048.4,405.7c5,0,9.6,2.5,11.8,6.2v-16.8h5.3V438h-5.3v-6c-1.9,3.5-6,6.5-11.8,6.5
			c-8.5,0-15.1-6.7-15.1-16.5C1033.3,412.1,1039.8,405.7,1048.4,405.7z M1049.4,410.3c-5.8,0-10.7,4.2-10.7,11.7
			c0,7.5,4.9,11.9,10.7,11.9c5.8,0,10.8-4.3,10.8-11.8C1060.1,414.7,1055.1,410.3,1049.4,410.3z"/>
	</g>
	<path class="st1" d="M809.3,1.9v358.4c0,1-0.8,1.9-1.9,1.9H740c-0.6,0-1.2-0.3-1.6-0.8L609.1,174.2c-1.1-1.5-3.4-0.8-3.4,1.1v185.1
		c0,1-0.8,1.9-1.9,1.9h-79.9c-1,0-1.9-0.8-1.9-1.9V1.9c0-1,0.8-1.9,1.9-1.9h67.5c0.6,0,1.2,0.3,1.6,0.8L722.2,188
		c1.1,1.5,3.4,0.8,3.4-1.1V1.9c0-1,0.8-1.9,1.9-1.9h79.9C808.5,0,809.3,0.8,809.3,1.9z"/>
	<path class="st1" d="M272.7,360.4l-0.8-182.5c0-1.9-2.6-2.5-3.5-0.8l-73.8,148.4c-0.3,0.6-0.9,1-1.6,1h-35.7c-0.7,0-1.3-0.4-1.6-1
		L82.4,182.1c-0.9-1.7-3.4-1.1-3.4,0.8v177.4c0,1-0.8,1.8-1.8,1.8H1.8c-1,0-1.8-0.8-1.8-1.8V1.8C0,0.8,0.8,0,1.8,0h67.4
		c0.7,0,1.3,0.4,1.6,1l104,204.8c0.7,1.3,2.6,1.3,3.3,0L279.6,1c0.3-0.6,0.9-1,1.6-1h67.4c1,0,1.8,0.8,1.8,1.8l0.9,358.6
		c0,1-0.8,1.8-1.8,1.8h-74.9C273.5,362.2,272.7,361.4,272.7,360.4z"/>
	<path class="st2" d="M478.8,232.8v127.5c0,1.1-0.9,1.9-1.9,1.9h-81.6c-1.1,0-1.9-0.9-1.9-1.9V231.2c0-0.3-0.1-0.6-0.2-0.9
		L279.5,2.8c-0.6-1.3,0.3-2.8,1.7-2.8h85.9c0.7,0,1.4,0.4,1.7,1.1l69.4,139.3c0.7,1.4,2.7,1.4,3.4,0L511.1,1.1
		c0.3-0.7,1-1.1,1.7-1.1h78.6c1.4,0,2.4,1.5,1.7,2.8L479,231.9C478.9,232.2,478.8,232.5,478.8,232.8z"/>
	<path class="st1" d="M829.8,1.9c0-1,0.8-1.9,1.9-1.9h141c100.1,0,168.7,69.9,168.7,181.1c0,111.2-68.6,181.1-168.7,181.1h-141
		c-1,0-1.9-0.8-1.9-1.9V1.9z M969.2,280.5c51.3,0,85.9-36.7,85.9-99.3s-34.5-99.3-85.9-99.3h-52.1c-1,0-1.9,0.8-1.9,1.9v195
		c0,1,0.8,1.9,1.9,1.9H969.2z"/>
	<circle class="st3" cx="1178.5" cy="326.1" r="36.2"/>
	<circle class="st2" cx="1273" cy="326.1" r="36.2"/>
</g>
</svg>
